<?xml version="1.0" encoding="utf-8"?>
<!-- Generator: Adobe Illustrator 16.0.3, SVG Export Plug-In . SVG Version: 6.00 Build 0)  -->
<!DOCTYPE svg PUBLIC "-//W3C//DTD SVG 1.1//EN" "http://www.w3.org/Graphics/SVG/1.1/DTD/svg11.dtd">
<svg version="1.1" xmlns="http://www.w3.org/2000/svg" xmlns:xlink="http://www.w3.org/1999/xlink" x="0px" y="0px" width="924px"
	 height="668px" viewBox="0 0 1024 768" style="enable-background:new 0 0 1024 768;" xml:space="preserve">
<style type="text/css">

	.st1{
		fill:transparent;
		-webkit-animation: color1 3s forwards 9s;
		-moz-animation: color1 3s forwards 9s;
		-o-animation: color1 3s forwards 9s;
		animation: color1 3s forwards 9s;
	}
	.st0{	
		fill:transparent;
	    stroke:#000000;
	    stroke-width:2;
	    stroke-dasharray: 3400;
	    stroke-dashoffset: 0;
	    stroke-miterlimit:10;
	    -webkit-animation: animación 9s forwards;
	
		-webkit-animation: color2 3s forwards 9s;
		-moz-animation: color2 3s forwards 9s;
		-o-animation: color2 3s forwards 9s;
		animation: color2 3s forwards 9s;
		}

@-webkit-keyframes animacion {
    from{
	    stroke-dashoffset: 3400;
	}
	to{
        stroke-dashoffset: 0;
	}

}

@keyframes animación {
    from{
	    stroke-dashoffset:3400;
	}
	to{
        stroke-dashoffset: 0;
	}
}

@-webkit-keyframes color1 {
    from{
		fill:transparent;
	}
	to{
		fill: #000000;
	}

}

@keyframe color1 {
    from{
		fill:transparent;
	}
	to{
		fill: #000000;
	}
}

@-webkit-keyframes color2 {
    from{
		fill:transparent;
	}
	to{
		fill: #ffffff;
	}

}

@keyframe color2 {
    from{
		fill:transparent;
	}
	to{
		fill: #ffffff;
	}
}

</style>
<g id="Sombra">
	<path id="Sombrita" class="st1" d="M832.29,424.9c-1-5.221-0.8-10.98-4.74-15.351c-3.12-3.47-6.1-7.06-9.34-10.399
		c-20.29-20.861-39.66-42.521-56.93-65.98c-29.431-39.95-52.24-83.27-66.92-130.8c-9.551-30.95-15.761-62.48-18.03-94.81
		c-1.13-16.109-2.28-32.22-1.36-48.359c0.2-3.431-0.56-5.531-3.229-7.531c-8.66-6.48-17.24-13.08-25.74-19.78
		c-0.1-0.08-0.21-0.16-0.309-0.24c-0.102-0.08-0.211-0.159-0.312-0.23c-1.938-1.42-3.92-1.8-6.18-1.44
		c-10.271,1.62-20.58,2.99-30.78,4.99c-11.28,2.21-22.58,4.58-32.55,10.81c-10.44,6.52-12.59,15.14-6.38,25.711
		c1.25,2.129,2.5,4.409,4.279,6.049c3.58,3.31,5.58,7.4,6.45,11.97c1.61,8.42,3.25,16.86,4.16,25.38
		c2.11,19.77,1.29,39.58-1.07,59.26c-2.85,23.74-8.189,46.99-15.92,69.65c-7.93,23.24-17.909,45.58-30.26,67.24
		c-7.28-7.64-13.59-15.72-19.58-24.01c-26.89-37.18-47.36-77.87-65.18-119.99c-0.66-1.58-1-3.1-0.96-4.78
		c0.27-10.82,0.21-21.66-1-32.42c-0.84-7.48-1.32-15.3-8.09-20.51c-8.32-6.4-16.61-12.86-25.07-19.08c-0.3-0.22-0.6-0.46-0.89-0.7
		l-0.03-0.03c-0.75-0.62-1.48-1.29-2.25-1.89c-1.34-1.05-2.81-1.91-4.73-2.02c-4.38-0.24-7.05,2.46-9.58,5.36
		c-22.37,25.74-44.72,51.5-67.49,77.72c1.26,1.02,2.35,2.04,3.57,2.87c10.89,7.47,20.13,16.67,27.93,27.24
		c7.88,10.66,13.75,22.26,12.62,36.04c-1.02,12.56-2.82,25.04-3.81,37.6c-1.65,20.98-4.23,41.86-7.3,62.65
		c-3.54,23.96-8.06,47.75-13.73,71.32c-12.15,50.479-29.59,98.859-55.51,144c-7.66,13.32-15.95,26.22-25.48,38.99
		c-11.99-12.82-25.84-22.551-39.32-32.591c-2.31-1.729-4.62-3.46-6.9-5.22c-0.09-0.07-0.19-0.139-0.28-0.22
		c-0.02-0.01-0.03-0.021-0.04-0.03c-8.8-6.689-18.92-10.399-30.46-8.56c-8.89,1.41-16.06,5.96-22.38,11.95
		c-12.88,12.199-21.13,27.56-28.47,43.38c-9.73,20.989-17.85,42.5-18.34,66.12c-0.21,10.479,1.2,20.479,8.17,28.779
		c4.13,4.931,9.78,8.2,14.84,12.08c12.61,9.69,24.41,20.2,41.11,23.53c14.12,2.82,28.13,5.82,42.51,5.72
		c29.22-0.2,56.21-8.26,80.84-24.139c30.82-19.871,53.04-47.491,70.63-79.041c33.78-60.61,49.26-126.95,59.95-194.7
		c2.6-16.5,4.65-33.091,6.42-49.72c0.47-4.5-0.43-9.451,2.28-14.021c1.89,2.2,3.47,4.11,5.11,5.97
		c9.9,11.221,19.91,22.29,31.9,31.42c9.72,7.391,19.09,15.24,28.82,22.621c8.61,6.51,17.31,12.92,27.74,16.471
		c14.68,5,23.2,2.669,32.741-9.441c3.068-3.91,6.129-7.859,8.839-12.01c19.689-30.2,34.46-62.88,48.109-96.1
		c4.511-10.96,8.54-22.12,13.302-34.51c20.289,44.29,52.339,78.16,85.738,111.229c-2.85,3.181-5.34,6.082-7.949,8.861
		c-9.57,10.21-18.62,20.819-26.289,32.55c-13.041,19.96-21.291,41.01-14.762,65.439c3.851,14.42,9.262,27.79,21.891,37.04
		c7.51,5.49,14.96,11.09,22.06,17.08c12.11,10.24,25.54,16.15,41.62,17.82c19.33,2.01,33.59-5.45,44.87-19.93
		c15.979-20.521,20.88-44.91,22.43-70.029C838.8,472.94,836.87,448.77,832.29,424.9 M265.38,602.93
		c92.53-116.68,106.04-268.99,114.16-363.4c6.84-35.56-42.92-69.77-42.92-69.77l67.78-78.17c22.18-21.3,16.22,49.17,17.38,50.32
		c50.77,121.19,97.912,162.331,117.1,174.42C606.91,198.31,588.4,99.62,581.46,82.96c-37.67-38.49,23.771-45.5,64.04-51.05
		c-7.54,220.55,137,332,154.92,358.45c23.89,113.03-10.85,169.271-47.29,173.261c-56.35,1.93-63.188-37.28-66.96-57.59
		c-5.8-46.03,52.35-93.681,50.96-96.46c-68.56-70-66.88-74.19-111.87-161.63c-9.72,45.82-66.729,174.03-90.479,178.94
		c-42.581,11.46-112.36-97.1-112.36-97.1c-37.49,466-266.74,373.31-266.74,373.31c-48.35-5.57-24.17-80.5,1.6-123.899
		C211.33,489.11,263.99,602.93,265.38,602.93"/>
</g>
<g id="Relleno">
	<path id="Rellenito_2_" class="st0" d="M155.158,703.205c0,0,229.25,92.695,266.738-373.306c0,0,69.784,108.562,112.366,97.099
		c23.748-4.912,80.758-133.117,90.479-178.937c44.994,87.434,43.312,91.624,111.874,161.63c1.389,2.777-56.769,50.432-50.968,96.463
		c3.774,20.308,10.615,59.52,66.967,57.584c36.434-3.992,71.172-60.228,47.284-173.262
		c-17.913-26.444-162.459-137.893-154.921-358.445c-40.266,5.554-101.706,12.56-64.04,51.048
		c6.943,16.661,25.454,115.353-42.579,233.372c-19.188-12.092-66.33-53.231-117.099-174.418
		c-1.155-1.155,4.802-71.619-17.383-50.327l-67.779,78.172c0,0,49.76,34.211,42.923,69.774
		c-8.121,94.409-21.632,246.718-114.164,363.4c-1.388,0-54.045-113.821-108.091-23.744
		C130.986,622.706,106.813,697.638,155.158,703.205"/>
</g>
</svg>
